<svg width="24" height="17" viewBox="0 0 24 17" fill="none" xmlns="http://www.w3.org/2000/svg">
<path d="M22.9797 0.660645H1.02035C0.457683 0.660645 0 1.09926 0 1.63834V4.19574V8.21995V15.3616C0 15.9007 0.457683 16.3393 1.02035 16.3393H22.9797C23.5423 16.3393 24.0001 15.9007 24.0001 15.3616V8.21995V4.19574V1.63834C24 1.09926 23.5423 0.660645 22.9797 0.660645ZM3.8539 13.4472H2.83138V10.3768H3.8539V13.4472ZM5.89896 13.4472H4.87643V10.3768H5.89896V13.4472ZM7.94401 13.4472H6.92148V10.3768H7.94401V13.4472ZM19.0038 13.9198C18.6274 13.9198 18.2658 13.8119 17.9598 13.6118C17.6538 13.8118 17.2921 13.9198 16.9157 13.9198C15.8918 13.9198 15.0589 13.1215 15.0589 12.1402C15.0589 11.1589 15.8918 10.3606 16.9157 10.3606C17.2921 10.3606 17.6538 10.4684 17.9598 10.6685C18.2658 10.4684 18.6274 10.3606 19.0038 10.3606C20.0278 10.3606 20.8608 11.1589 20.8608 12.1402C20.8609 13.1214 20.0278 13.9198 19.0038 13.9198ZM23.3183 7.56674H0.681685V4.84909H23.3183V7.56674Z" fill="url(#paint0_linear_133_4)"/>
<defs>
<linearGradient id="paint0_linear_133_4" x1="0" y1="8.49998" x2="24.0001" y2="8.49998" gradientUnits="userSpaceOnUse">
<stop stop-color="#7100DC"/>
<stop offset="1" stop-color="#FF6A57"/>
</linearGradient>
</defs>
</svg>
