<svg width="614" height="307" viewBox="0 0 614 307" fill="none" xmlns="http://www.w3.org/2000/svg">
<rect width="613.38" height="306.3" rx="31" fill="white"/>
<g clip-path="url(#clip0_304_74)">
<mask id="mask0_304_74" style="mask-type:luminance" maskUnits="userSpaceOnUse" x="18" y="9" width="577" height="289">
<path d="M18.7031 9.15043H594.703V297.15H18.7031V9.15043Z" fill="white"/>
</mask>
<g mask="url(#mask0_304_74)">
<path d="M64.0038 215.728H67.6972L64.2652 230.062C63.7558 232.189 63.8518 233.79 64.5558 234.858C65.2572 235.928 66.5625 236.462 68.4705 236.462C70.3665 236.462 71.9212 235.928 73.1358 234.858C74.3518 233.79 75.2145 232.189 75.7238 230.062L79.1545 215.728H82.8958L79.3798 230.417C78.6158 233.609 77.2545 235.998 75.3052 237.582C73.3545 239.169 70.7972 239.961 67.6332 239.961C64.4665 239.961 62.2945 239.17 61.1118 237.59C59.9278 236.012 59.7212 233.62 60.4878 230.417L64.0038 215.728Z" fill="#696A6A"/>
<path d="M82.3984 239.334L88.2731 214.794L99.4358 229.225C99.7344 229.631 100.036 230.067 100.333 230.53C100.63 230.993 100.934 231.513 101.246 232.094L105.165 215.729H108.622L102.752 240.25L91.3544 225.562C91.0491 225.166 90.7651 224.747 90.4998 224.306C90.2318 223.865 89.9904 223.402 89.7691 222.919L85.8398 239.334H82.3984Z" fill="#696A6A"/>
<path d="M108.316 239.334L113.967 215.729H117.706L112.056 239.334H108.316Z" fill="#696A6A"/>
<path d="M117.434 239.334L123.084 215.729H135.924L135.144 218.985H126.044L124.635 224.87H133.735L132.93 228.239H123.828L121.174 239.334H117.434Z" fill="#696A6A"/>
<path d="M134.395 239.334L140.045 215.729H143.784L138.135 239.334H134.395Z" fill="#696A6A"/>
<path d="M143.508 239.334L149.158 215.729H161.998L161.218 218.985H152.118L150.701 224.902H159.801L158.996 228.273H149.896L148.069 235.899H157.169L156.348 239.334H143.508Z" fill="#696A6A"/>
<path d="M165.21 235.866H168.354C170.082 235.866 171.407 235.747 172.329 235.511C173.25 235.275 174.095 234.877 174.87 234.318C175.922 233.557 176.801 232.607 177.507 231.473C178.213 230.339 178.747 229.018 179.107 227.513C179.466 226.007 179.565 224.69 179.402 223.558C179.238 222.422 178.814 221.474 178.127 220.71C177.611 220.153 176.93 219.753 176.079 219.515C175.227 219.281 173.841 219.162 171.913 219.162H170.561H169.209L165.21 235.866ZM160.641 239.334L166.291 215.727H171.335C174.615 215.727 176.882 215.895 178.138 216.234C179.391 216.574 180.427 217.142 181.242 217.937C182.323 218.979 183.011 220.318 183.307 221.95C183.602 223.585 183.498 225.45 182.997 227.546C182.495 229.642 181.707 231.499 180.633 233.117C179.561 234.735 178.231 236.07 176.65 237.123C175.454 237.919 174.171 238.486 172.809 238.826C171.442 239.163 169.405 239.334 166.69 239.334H165.683H160.641Z" fill="#696A6A"/>
<path d="M201.208 225.597H202.168C204.241 225.597 205.68 225.363 206.482 224.902C207.286 224.441 207.826 223.623 208.106 222.451C208.408 221.194 208.252 220.306 207.636 219.791C207.02 219.275 205.724 219.015 203.744 219.015H202.784L201.208 225.597ZM200.22 228.738L197.684 239.334H194.18L199.832 215.729H205.489C207.165 215.729 208.377 215.822 209.124 216.01C209.868 216.197 210.482 216.507 210.968 216.938C211.558 217.486 211.946 218.225 212.133 219.154C212.318 220.085 212.278 221.109 212.012 222.225C211.742 223.343 211.292 224.375 210.657 225.322C210.022 226.267 209.278 227.01 208.428 227.546C207.737 227.977 206.976 228.283 206.141 228.465C205.305 228.649 204.05 228.738 202.374 228.738H201.637H200.22Z" fill="#696A6A"/>
<path d="M216.628 230.063H223.04L221.97 224.677C221.919 224.334 221.871 223.939 221.83 223.493C221.791 223.046 221.764 222.549 221.747 222.001C221.499 222.517 221.25 222.998 221 223.445C220.752 223.89 220.511 224.301 220.274 224.677L216.628 230.063ZM224.751 239.334L223.595 233.255H214.479L210.352 239.334H206.426L223.44 214.794L228.695 239.334H224.751Z" fill="#696A6A"/>
<path d="M234.056 239.334L236.64 228.53L231.957 215.729H235.886L238.793 223.742C238.86 223.947 238.94 224.215 239.032 224.549C239.125 224.882 239.216 225.241 239.301 225.629C239.536 225.253 239.777 224.895 240.018 224.563C240.26 224.23 240.504 223.925 240.75 223.645L247.594 215.729H251.336L240.349 228.53L237.764 239.334H234.056Z" fill="#696A6A"/>
<path d="M269.741 227.674C269.742 227.492 269.795 226.988 269.899 226.16C269.979 225.472 270.042 224.901 270.087 224.449C269.865 224.988 269.602 225.526 269.301 226.062C268.998 226.6 268.651 227.148 268.255 227.708L259.225 240.285L256.278 227.45C256.153 226.922 256.057 226.412 255.993 225.918C255.929 225.424 255.885 224.934 255.863 224.449C255.735 224.945 255.573 225.462 255.374 226.006C255.175 226.549 254.938 227.117 254.659 227.708L249.409 239.333H245.969L257.295 214.726L260.519 229.626C260.566 229.862 260.634 230.256 260.717 230.804C260.799 231.352 260.897 232.029 261.01 232.834C261.391 232.157 261.941 231.298 262.663 230.256C262.855 229.976 263.002 229.761 263.101 229.61L273.297 214.726L272.97 239.333H269.495L269.741 227.674Z" fill="#696A6A"/>
<path d="M275.957 239.334L281.609 215.729H294.449L293.669 218.985H284.568L283.152 224.902H292.252L291.446 228.273H282.345L280.52 235.899H289.62L288.796 239.334H275.957Z" fill="#696A6A"/>
<path d="M293.09 239.334L298.965 214.794L310.127 229.225C310.426 229.631 310.727 230.067 311.025 230.53C311.322 230.993 311.626 231.513 311.938 232.094L315.857 215.729H319.315L313.443 240.25L302.046 225.562C301.741 225.166 301.457 224.747 301.191 224.306C300.923 223.865 300.682 223.402 300.461 222.919L296.531 239.334H293.09Z" fill="#696A6A"/>
<path d="M331.249 218.985L326.379 239.334H322.639L327.508 218.985H321.395L322.175 215.729H338.111L337.332 218.985H331.249Z" fill="#696A6A"/>
<path d="M335.13 234.608L338.455 233.19C338.488 234.242 338.814 235.046 339.435 235.6C340.056 236.154 340.954 236.43 342.13 236.43C343.239 236.43 344.199 236.113 345.004 235.478C345.811 234.845 346.343 233.996 346.598 232.932C346.93 231.544 346.102 230.308 344.122 229.224C343.844 229.062 343.631 228.944 343.484 228.868C341.251 227.6 339.835 226.452 339.238 225.425C338.642 224.398 338.519 223.144 338.874 221.661C339.334 219.737 340.344 218.178 341.903 216.985C343.462 215.792 345.272 215.194 347.338 215.194C349.035 215.194 350.375 215.53 351.355 216.202C352.336 216.876 352.896 217.84 353.035 219.097L349.743 220.645C349.458 219.904 349.082 219.361 348.615 219.016C348.147 218.672 347.555 218.5 346.844 218.5C345.839 218.5 344.975 218.77 344.254 219.305C343.536 219.844 343.066 220.564 342.848 221.468C342.51 222.886 343.492 224.208 345.798 225.433C345.975 225.529 346.114 225.606 346.214 225.66C348.231 226.733 349.543 227.785 350.144 228.812C350.747 229.84 350.866 231.121 350.496 232.657C349.962 234.894 348.851 236.67 347.163 237.986C345.475 239.302 343.462 239.961 341.127 239.961C339.166 239.961 337.671 239.5 336.642 238.574C335.61 237.65 335.106 236.329 335.13 234.608Z" fill="#696A6A"/>
<path d="M362.762 239.334L368.412 215.729H372.152L366.502 239.334H362.762Z" fill="#696A6A"/>
<path d="M371.879 239.334L377.754 214.794L388.916 229.225C389.215 229.631 389.516 230.067 389.814 230.53C390.111 230.993 390.415 231.513 390.727 232.094L394.646 215.729H398.103L392.232 240.25L380.835 225.562C380.53 225.166 380.244 224.747 379.979 224.306C379.712 223.865 379.47 223.402 379.248 222.919L375.32 239.334H371.879Z" fill="#696A6A"/>
<path d="M410.038 218.985L405.166 239.334H401.428L406.297 218.985H400.184L400.964 215.729H416.9L416.121 218.985H410.038Z" fill="#696A6A"/>
<path d="M414.109 239.334L419.76 215.729H432.6L431.821 218.985H422.721L421.304 224.902H430.404L429.597 228.273H420.497L418.672 235.899H427.772L426.949 239.334H414.109Z" fill="#696A6A"/>
<path d="M438.225 225.789H438.902C440.881 225.789 442.253 225.554 443.016 225.081C443.778 224.607 444.306 223.77 444.592 222.565C444.904 221.265 444.776 220.347 444.204 219.817C443.637 219.282 442.409 219.017 440.524 219.017H439.846L438.225 225.789ZM437.276 228.771L434.746 239.334H431.242L436.894 215.729H442.112C443.641 215.729 444.804 215.83 445.597 216.035C446.392 216.239 447.032 216.577 447.516 217.051C448.092 217.619 448.465 218.358 448.638 219.261C448.808 220.162 448.764 221.151 448.508 222.225C448.056 224.117 447.256 225.598 446.109 226.669C444.962 227.737 443.493 228.381 441.702 228.594L447.054 239.334H442.825L437.7 228.771H437.276Z" fill="#696A6A"/>
<path d="M449.27 239.334L454.92 215.729H467.76L466.982 218.985H457.88L456.471 224.87H465.572L464.766 228.239H455.666L453.01 239.334H449.27Z" fill="#696A6A"/>
<path d="M472.093 230.063H478.507L477.436 224.677C477.384 224.334 477.337 223.939 477.296 223.493C477.257 223.046 477.231 222.549 477.213 222.001C476.964 222.517 476.715 222.998 476.467 223.445C476.219 223.89 475.976 224.301 475.739 224.677L472.093 230.063ZM480.217 239.334L479.061 233.255H469.945L465.819 239.334H461.891L478.905 214.794L484.161 239.334H480.217Z" fill="#696A6A"/>
<path d="M508.51 221.468C507.674 220.544 506.722 219.85 505.653 219.388C504.586 218.928 503.402 218.694 502.102 218.694C499.589 218.694 497.344 219.522 495.372 221.177C493.397 222.833 492.096 224.977 491.465 227.612C490.856 230.16 491.121 232.26 492.26 233.914C493.398 235.57 495.137 236.4 497.472 236.4C498.836 236.4 500.19 236.152 501.54 235.657C502.889 235.162 504.25 234.416 505.62 233.414L504.581 237.753C503.398 238.494 502.17 239.049 500.9 239.413C499.628 239.778 498.301 239.961 496.918 239.961C495.158 239.961 493.601 239.666 492.25 239.074C490.898 238.484 489.793 237.614 488.938 236.462C488.088 235.334 487.542 234.005 487.309 232.472C487.072 230.941 487.161 229.309 487.574 227.577C487.989 225.848 488.681 224.222 489.648 222.701C490.613 221.18 491.806 219.844 493.222 218.694C494.644 217.533 496.164 216.656 497.782 216.057C499.402 215.462 501.073 215.162 502.792 215.162C504.144 215.162 505.384 215.365 506.513 215.769C507.642 216.17 508.685 216.78 509.644 217.6L508.51 221.468Z" fill="#696A6A"/>
<path d="M508.871 239.334L514.522 215.729H527.362L526.582 218.985H517.483L516.066 224.902H525.166L524.359 228.273H515.259L513.434 235.899H522.534L521.711 239.334H508.871Z" fill="#696A6A"/>
<path d="M440.652 195.158H414.941L450.699 66.0182H476.411L440.652 195.158Z" fill="#66686C"/>
<path d="M427.305 70.1011C425.522 67.6437 422.773 66.4037 419.038 66.4037H277.657L270.654 91.6971H296.38V91.6824H399.272L391.786 118.712H288.892L288.901 118.656H263.186L241.844 195.705H267.572L281.894 143.99H397.556C401.168 143.99 404.568 142.758 407.765 140.294C410.956 137.828 413.056 134.786 414.062 131.154L428.384 79.4291C429.429 75.6758 429.068 72.5611 427.305 70.1011Z" fill="#66686C"/>
<path d="M226.862 187.095C225.442 192.209 220.786 195.746 215.478 195.746H82.8235C79.2089 195.746 76.5222 194.514 74.7555 192.053C72.9902 189.589 72.6115 186.541 73.6209 182.91L105.989 66.3941H131.724L102.813 170.461H205.754L234.665 66.3941H260.394L226.862 187.095Z" fill="#66686C"/>
<path d="M520.815 66.2595L553.367 130.997L484.938 195.717L520.815 66.2595Z" fill="#27803B"/>
<path d="M497.996 66.2595L530.524 130.997L462.066 195.717L497.996 66.2595Z" fill="#E9661C"/>
</g>
</g>
<defs>
<clipPath id="clip0_304_74">
<rect width="493.379" height="174.304" fill="white" transform="translate(60 66)"/>
</clipPath>
</defs>
</svg>
